<?xml version="1.0" encoding="utf-8"?>
<!-- Generator: Adobe Illustrator 25.2.3, SVG Export Plug-In . SVG Version: 6.00 Build 0)  -->
<svg version="1.1" id="funcionamiento" xmlns="http://www.w3.org/2000/svg" xmlns:xlink="http://www.w3.org/1999/xlink" x="0px"
	 y="0px" viewBox="0 0 1200.2 1150.7" style="enable-background:new 0 0 1200.2 1150.7;" xml:space="preserve">
<style type="text/css">
	.st0{fill:#FFFFFF;}
	.st1{fill:#3F3D56;}
	.st2{fill:none;stroke:#3F3D56;stroke-width:2;stroke-miterlimit:10;}
	.st3{fill:#E6E6E6;}
	.st4{fill:#A8A8A8;}
	.st5{opacity:0.2;enable-background:new    ;}
	.st6{fill:#2F2E41;}
	.st7{fill:#A0616A;}
	.st8{fill:#575A89;}
	.st9{opacity:0.92;fill:#BF1E2D;enable-background:new    ;}
	.st10{opacity:0.1;enable-background:new    ;}
	.st11{fill:#BF1E2D;}
	.st12{fill:#F2F2F2;}
	.st13{fill:#FED253;}
	.st14{fill:#FFFFFF;stroke:#000000;stroke-miterlimit:10;}
</style>
<rect x="496.5" y="1167.8" class="st0" width="115.7" height="6.5"/>
<ellipse class="st1" cx="588.3" cy="1070.6" rx="406.5" ry="70.8"/>
<path class="st2" d="M249.5,403.5c0-103.2,153.6-186.8,343-186.8s343,83.7,343,186.8"/>
<path class="st3" d="M700.4,288.6h-279c-55.2-91.7-55.2-183.3,0-274.9h279.1C623.2,105.3,623.2,196.9,700.4,288.6z"/>
<rect x="461.2" y="46.4" class="st0" width="157.3" height="19.6"/>
<rect x="410.3" y="110.7" class="st0" width="208.2" height="6.5"/>
<rect x="410.3" y="144.6" class="st0" width="208.2" height="6.5"/>
<rect x="410.3" y="178.4" class="st0" width="208.2" height="6.5"/>
<path class="st1" d="M811.8,897.2c0,87.2,55.5,157.8,124.1,157.8"/>
<path class="st0" d="M936,1054.9c0-88.2,62-159.5,138.5-159.5"/>
<path class="st0" d="M856.8,905.1c0,82.8,35.4,149.8,79.2,149.8"/>
<path class="st1" d="M936,1054.9c0-112.7,71.6-203.8,160.1-203.8"/>
<path class="st4" d="M909.9,1056.1c0,0,17.6-0.5,22.9-4.3c5.3-3.7,27.1-8.2,28.4-2.2c1.3,6,26.5,29.7,6.6,29.9
	c-19.9,0.2-46.2-3.1-51.5-6.2C911,1070,909.9,1056.1,909.9,1056.1z"/>
<path class="st5" d="M968.1,1077.4c-19.9,0.2-46.2-3.1-51.5-6.2c-4-2.4-5.6-11.1-6.2-15.1c-0.4,0-0.6,0-0.6,0s1.1,14,6.4,17.2
	c5.3,3.2,31.6,6.4,51.5,6.2c5.7,0,7.7-2.1,7.6-5C974.6,1076.2,972.4,1077.3,968.1,1077.4z"/>
<path class="st6" d="M528.6,228.4c1.6,0.7,3.6-0.4,4.5-1.8c3.6-5.6-3.1-12.9-1.6-19.4c1.1-5.2,7.2-8.3,8.4-13.5
	c1.2-5.1-2.5-10.8,0-15.3c2-3.6,6.8-4.5,10.9-3.9c4.1,0.6,7.9,2.4,12.1,2.6c5.5,0.3,10.7-2.1,16.1-3.2c5.4-1.2,11.9-0.7,15.1,3.7
	c4.1,5.7-0.1,13.6,1.3,20.5c1.1,5.4,5.7,9.9,5.8,15.4c0,2-5.2,0.4-4.9,2.3c0.3,1.9-2.2,0.2-0.2,0c1.7-0.4,2.9-1.8,3-3.5
	c0.2-1.6,3.3-2.2,3.3-3.8c-0.1-3.8,7-1.2,8.1-4.9c2.7-8.5,2.1-17.7-1.5-25.9c-1.6-3.5-3.7-6.8-4.5-10.5c-1-5.1,0.6-10.5-1.1-15.5
	c-2.3-6.6-9.9-10-17-10.7s-14.2,0.5-21.3-0.5c-6.3-0.9-12.4-3.6-18.7-3.2c-7.6,0.5-14.2,5.3-19.5,10.7s-9.7,11.7-15.7,16.3
	c-1.8,1.2-3.5,2.7-5.1,4.3c-3.1,3.7-3.4,8.9-2.5,13.5c0.9,4.7,2.7,9.1,3.5,13.8c0.7,4.4,0.5,8.9,0.8,13.3c0.3,4.4,1.2,9,4,12.6
	c2.2,3,5.7,4.7,9.4,4.8c1.3,0,2.3-1.1,3.6-0.8C526.5,226.3,527.2,227.8,528.6,228.4z"/>
<polygon class="st7" points="474.3,551.3 479,579.8 488.4,567.2 483.1,548 "/>
<path class="st8" d="M480.4,336l-7.4,19.2c0,0-7.4,98-7.4,105.3s5.4,100.7,7.4,104.7c0,0,8.7-12.6,20.2-10.6s6.7-33.1,6.7-33.1
	l10.8-86.8l-2-43.7L480.4,336z"/>
<path class="st9" d="M480.4,336l-7.4,19.2c0,0-7.4,98-7.4,105.3s5.4,100.7,7.4,104.7c0,0,8.7-12.6,20.2-10.6s6.7-33.1,6.7-33.1
	l10.8-86.8l-2-43.7L480.4,336z"/>
<path class="st7" d="M526.1,230c0,0,22.2,55.6,9.4,66.2s71.3-17.9,71.3-17.9l-2-7.3c0,0-27.6-10.6-14.1-41.1
	C604.1,199.5,526.1,230,526.1,230z"/>
<path class="st10" d="M526.1,230c0,0,22.2,55.6,9.4,66.2s71.3-17.9,71.3-17.9l-2-7.3c0,0-27.6-10.6-14.1-41.1
	C604.1,199.5,526.1,230,526.1,230z"/>
<path class="st8" d="M491.1,973.2c0,0-9.4-2.7-14.8,4c-5.4,6.6-25.6,23.2-25.6,23.2s-39-4-44.4,15.2s61.2,19.2,77.3,14.6
	s19.5,0,19.5,0s49.8,4,49.8-4c0-7.9-4.7-35.1-4.7-35.1L491.1,973.2z"/>
<path class="st8" d="M649.1,1017.6l-8.7,26.5c0,0-26.2,35.8-11.4,43.1c14.8,7.3,67.2,14.6,67.2-4.6v-36.4c0,0-5.4-25.8-10.8-28.5
	C680.1,1015,649.1,1017.6,649.1,1017.6z"/>
<path class="st6" d="M500.7,541.6c0,0-28.3,24.3-27.7,27.6c0.7,3.3,14.1,216,14.1,216l7.4,137.8c0,0-9.4,32.5-4.7,39.8
	c4.7,7.3-6.7,9.3-6.7,9.3s48.4,43.1,68.6,24.5l18.8-240.5L622.3,931c0,0,8.7,92.7,18.8,92.7s51.1,2,50.4-3.3
	c-0.7-5.3,2-45.7-2.7-69.5s-36.3-212.6-36.3-212.6s-2.7-161.9,4.4-177s-3.7-31-3.7-31l-47.1-17.9l-56.5,6.6L500.7,541.6z"/>
<ellipse class="st7" cx="557.7" cy="206.1" rx="47.1" ry="46.4"/>
<path class="st11" d="M672,306.2c-4.7-13.2-15.8-23.1-29.6-26.5c-13.6-3.4-26.8-7.8-39.7-13.3c0,0-47.7,22.5-57.1,22.5s-9.4-6-9.4-6
	s-24.2,25.2-37,27.8c-12.8,2.7-31.6,33.8-24.9,51c4.6,11,11.2,21.2,19.5,29.8c0,0-2.7,92.7,6,110c0,0-21.5,40.4-1.3,43.1
	c20.2,2.7,97.5-6.6,110.9,2.7s38.3-2,41.7,10.6s10.8,15.2,10.8,15.2s11.4-17.9,4.7-28.5S672,306.2,672,306.2z"/>
<path class="st7" d="M622.2,555.2l-10.8,6.6c0,0,11.4,39.1,16.1,40.4c4.7,1.3,15.8-33.4,15.8-33.4L622.2,555.2z"/>
<path class="st6" d="M520.6,223.8c1.6,0.7,3.6-0.4,4.5-1.8c3.6-5.6-3.1-12.9-1.6-19.4c1.1-5.2,7.2-8.3,8.4-13.5
	c1.2-5.1-2.5-10.8,0-15.3c2-3.6,6.8-4.5,10.9-3.9c4.1,0.6,7.9,2.4,12.1,2.6c5.5,0.3,10.7-2.1,16.1-3.2c5.4-1.2,11.9-0.7,15.1,3.7
	c4.1,5.7-0.1,13.6,1.3,20.5c1.1,5.4,13.9,9.2,15.1,5.5c2.7-8.5,2.1-17.7-1.5-25.9c-1.6-3.5-3.7-6.8-4.5-10.5
	c-1-5.1,0.6-10.5-1.1-15.5c-2.3-6.6-9.9-10-17-10.7s-14.2,0.5-21.3-0.5c-6.3-0.9-12.4-3.6-18.7-3.2c-7.6,0.5-14.2,5.3-19.5,10.7
	s-9.7,11.7-15.7,16.3c-1.8,1.2-3.5,2.7-5.1,4.3c-3.1,3.7-3.4,8.9-2.5,13.5c0.9,4.7,2.7,9.1,3.5,13.8c0.7,4.4,0.5,8.9,0.8,13.3
	c0.3,4.4,1.2,9,4,12.6c2.2,3,5.7,4.7,9.4,4.8c1.3,0,2.3-1.1,3.6-0.8C518.4,221.6,519.1,223.1,520.6,223.8z"/>
<path class="st10" d="M645.4,317.8l21.8-11.6c0,0,53.1,124.5,40.3,159c-12.8,34.4-61.9,105.3-61.9,105.3s-39-7.9-35-15.9
	c4-7.9,30.2-58.9,32.3-65.6s15.5-49.7,9.4-54.3s-17.8-112.3-17.8-112.3L645.4,317.8z"/>
<path class="st11" d="M645.1,298.9l26.9,7.3c0,0,53.1,124.5,40.3,159c-12.8,34.4-61.9,105.3-61.9,105.3s-39-7.9-35-15.9
	c4-7.9,30.2-58.9,32.3-65.6c2-6.6,15.5-49.7,9.4-54.3c-6-4.6-35-119.2-35-119.2L645.1,298.9z"/>
<path class="st2" d="M935.6,403.5c0,108.2-153.6,195.9-343,195.9s-343-87.7-343-195.9"/>
<path class="st2" d="M873.2,602.1c-76.7,40.7-176.7,65.4-286.2,65.4c-104.9,0-201.2-22.7-276.6-60.4"/>
<path class="st2" d="M763.9,166.1c145.9,37.8,249.8,120.9,259.5,218.8"/>
<path class="st2" d="M171,321.2c24.6-44.5,69.5-83.7,128.4-113.8"/>
<path class="st12" d="M472.7,797.8h279.1c55.2-91.7,55.2-183.3,0-274.9H472.7C549.9,614.5,549.9,706.2,472.7,797.8z"/>
<rect x="565" y="575.2" class="st0" width="157.3" height="19.6"/>
<rect x="552.8" y="634.2" class="st0" width="208.2" height="6.5"/>
<rect x="552.8" y="668" class="st0" width="208.2" height="6.5"/>
<path class="st12" d="M354.4,611.2H75.3c-55.2-91.7-55.2-183.3,0-274.9h279.1C277.2,427.9,277.2,519.5,354.4,611.2z"/>
<rect x="106.3" y="369" class="st0" width="157.3" height="19.6"/>
<rect x="72" y="423.5" class="st0" width="208.2" height="6.5"/>
<rect x="72" y="457.4" class="st0" width="208.2" height="6.5"/>
<rect x="72" y="491.2" class="st0" width="208.2" height="6.5"/>
<rect x="72" y="525" class="st0" width="208.2" height="6.5"/>
<path class="st12" d="M810.6,484.5h279.1c55.2-91.7,55.2-183.3,0-274.9H810.6C887.8,301.3,887.8,392.9,810.6,484.5z"/>
<rect x="899.6" y="236.9" class="st0" width="157.3" height="19.6"/>
<rect x="883" y="291.4" class="st0" width="208.2" height="6.5"/>
<path class="st10" d="M501.3,177.7c-1.3,1.3-3,2-4.8,1.9c-2.4-0.1-4.5-1.5-5.7-2.5c-0.4-0.3-0.7-0.6-1-0.9c-1.2-4.2-0.5-7,1-8.9l0,0
	c2-2.6,5.5-3.4,7-3.6c0.5-0.1,0.7-0.1,0.7-0.1l0.2,0.2c0.2,0.3,0.8,1,1.4,1.9C502.1,168.7,505,174.2,501.3,177.7z"/>
<path class="st13" d="M609.5,149.2c0,0-1.8,3.7-4,4.2s-11,1.9-15.8,1.4s-27.2,3.1-27.2,3.1s-31.3,6.7-32.6,5.9s-21-2.7-22.8-1.9
	c-0.4,0.2-1.3,0.5-2.5,1l-1.4,0.6c-2.1,0.8-4.8,1.8-7.3,2.7c-3.1,1-5.8,1.8-6.7,1.7l-0.6-2.7c0,0,2.5-6.1,2.4-7.7
	s-1.9-24.5,4.4-34.1c1.9-7.1,6.2-13.3,12-17.6c9.8-7,19.7-13.3,19.7-13.3l1.8-0.7l5.9-2.2c0.1-0.2,0.3-0.4,0.5-0.6
	c1.4-1.7,5.9-5.6,13.9-0.9l1.6,1.7c0,0,21.6,0.6,34.8,15.5c13.2,15,17.3,31.5,19.6,39c0,0,0,2.2,1.1,2.9c0.4,0.2,0.8,0.5,1.2,0.8
	c0.1,0.1,0.2,0.1,0.3,0.2c0.3,0.2,0.7,0.5,0.9,0.6c0,0,0.1,0,0.1,0.1c0.1,0.1,0.1,0.1,0.2,0.1L609.5,149.2z"/>
<path class="st13" d="M490.9,177c0,0-9.2-4.4,0.2-10.6c0,0,16.6-9.3,31.7-5.3c0,0,8,1.9,13,0.9c4.9-1,45.2-9.1,55.2-8.4
	c2,0.2,4,0.2,6,0c5.1-0.4,10-2.5,13.9-5.8c0.6-0.5,1.1-0.8,1.3-0.6c0.7,0.6,1.2,4.9-3.8,6.8c-3.9,1.5-13.3,2.2-17.3,2.4
	c-1,0.1-2.1,0.1-3.1,0.1c-4,0-16.2,0.1-23.1,2.7c-8.3,3.1-33,5.8-33,5.8s-15.6,0-22.1-1.2C503.1,162.5,486.6,168.2,490.9,177z"/>
<path class="st14" d="M528.9,392.3"/>
</svg>
